# xmcd
# 
# Track frame offsets:
#     150
#     12599
#     24846
#     43442
#     55678
#     78705
#     99631
#     124214
#     143824
#     158464
# 
# Disc length: 2431
# 
# Revision: 0
# Processed by: cddbd v1.5.2PL0 Copyright (c) Steve Scherf et al.
# Submitted via: fre:ac v1.0.27
# 
DISCID=7f097d0a
DTITLE=The Lumineers - The Lumineers
DYEAR=2012
DGENRE=Folk/Rock
TTITLE0=Flowers in Your Hair
TTITLE1=Classy Girls
TTITLE2=Submarines
TTITLE3=Dead Sea
TTITLE4=Ho Hey
TTITLE5=Slow it Down
TTITLE6=Stubborn Love
TTITLE7=Big Parade
TTITLE8=Charlie Boy
TTITLE9=Flapper Girl
EXTD=
EXTT0=
EXTT1=
EXTT2=
EXTT3=
EXTT4=
EXTT5=
EXTT6=
EXTT7=
EXTT8=
EXTT9=
PLAYORDER=
